<?xml version="1.0" encoding="UTF-8"?>
<svg version="1.1" xmlns="http://www.w3.org/2000/svg" width="512" height="512">
<path d="M0 0 C0.74668945 0.20367188 1.49337891 0.40734375 2.26269531 0.6171875 C26.60856268 7.38515063 49.04731569 21.26904835 65 41 C57.61673273 47.11661194 49.93040253 52.63019766 42 58 C48.49066451 63.42217674 55.24230306 68.35754105 62.16650391 73.20385742 C67.74881128 77.11098151 73.29128306 81.06951721 78.8125 85.0625 C79.57111328 85.61059326 80.32972656 86.15868652 81.11132812 86.72338867 C84.42772326 89.12327325 87.72960717 91.53760253 91 94 C89.48828388 98.16666757 86.52921647 100.05077933 83 102.4375 C81.72859481 103.32079203 80.45779114 104.20495032 79.1875 105.08984375 C78.17042969 105.79343018 78.17042969 105.79343018 77.1328125 106.51123047 C73.38712096 109.12583979 69.69670158 111.81679565 66 114.5 C61.60147087 117.69055522 57.19933648 120.87211171 52.7421875 123.98046875 C52.08734375 124.439375 51.4325 124.89828125 50.7578125 125.37109375 C49.52995138 126.22957756 48.29833108 127.08271706 47.0625 127.9296875 C45.67255489 128.90397917 44.33023779 129.94564754 43 131 C43 131.66 43 132.32 43 133 C44.92534446 134.52603668 46.85175356 135.92579277 48.875 137.3125 C50.16583867 138.21546848 51.45617913 139.11914948 52.74609375 140.0234375 C53.43687012 140.50522461 54.12764648 140.98701172 54.83935547 141.48339844 C59.33235623 144.6371296 63.77244889 147.8650283 68.21386719 151.09082031 C71.94872419 153.80256063 75.69428701 156.49307425 79.48046875 159.1328125 C80.17986572 159.62724854 80.8792627 160.12168457 81.59985352 160.63110352 C82.9197618 161.56402965 84.2468175 162.4869496 85.58178711 163.39819336 C87.3515625 164.66015625 87.3515625 164.66015625 90 167 C90 171 90 171 88.72509766 172.34936523 C88.12745605 172.74841064 87.52981445 173.14745605 86.9140625 173.55859375 C86.23947998 174.02031982 85.56489746 174.4820459 84.86987305 174.95776367 C84.12906494 175.44607666 83.38825684 175.93438965 82.625 176.4375 C81.06040024 177.50403909 79.49662504 178.57178861 77.93359375 179.640625 C77.12003418 180.19169922 76.30647461 180.74277344 75.46826172 181.31054688 C71.49080233 184.03300177 67.58893419 186.85763639 63.6875 189.6875 C62.93944092 190.22850342 62.19138184 190.76950684 61.4206543 191.3269043 C51.30615809 198.1862281 51.30615809 198.1862281 42 206 C42.90621094 206.64066406 43.81242188 207.28132812 44.74609375 207.94140625 C51.61759317 212.81509133 58.41582574 217.73962798 65 223 C58.63607561 230.60566574 52.16663908 237.26303668 44 242.9375 C43.26015869 243.45328613 42.52031738 243.96907227 41.75805664 244.50048828 C11.74799847 265.06287618 -25.71751769 273.15835377 -61.69750977 266.82202148 C-65.50939298 266.02192088 -69.25667216 265.07393446 -73 264 C-73.66547852 263.81808105 -74.33095703 263.63616211 -75.01660156 263.44873047 C-97.2615001 257.24742467 -116.25708443 244.57036611 -133 229 C-134.00160156 228.09701172 -134.00160156 228.09701172 -135.0234375 227.17578125 C-158.16116146 205.40743279 -171.51159012 171.9592165 -173.1262207 140.54418945 C-174.10432311 108.33512197 -166.71884349 77.07096106 -147 51 C-146.32710937 50.10667969 -145.65421875 49.21335938 -144.9609375 48.29296875 C-111.09172694 5.24828115 -53.34728977 -15.34356137 0 0 Z " fill="#FECA52" transform="translate(261,20)"/>
<path d="M0 0 C5.2354914 2.47495957 9.39229231 6.78458462 12 12 C12.23828125 14.35546875 12.23828125 14.35546875 12.3125 17.1875 C12.34988281 18.10917969 12.38726562 19.03085937 12.42578125 19.98046875 C11.40582649 27.21372589 6.00553903 32.67329639 1.4375 38.0625 C0.17580526 39.57184922 -1.08459628 41.08228032 -2.34375 42.59375 C-2.96507812 43.33882813 -3.58640625 44.08390625 -4.2265625 44.8515625 C-6.72642539 47.88003076 -9.15166907 50.96298833 -11.5625 54.0625 C-15.48119159 59.09234357 -19.46797036 64.06054215 -23.5 69 C-27.54982377 73.96232624 -31.55789717 78.95165808 -35.5 84 C-40.56256072 90.47996634 -45.72839731 96.87175046 -50.9375 103.234375 C-52.80295003 105.51564579 -54.63015106 107.8119254 -56.4375 110.140625 C-66.92578321 123.55064425 -80.00484219 130.76187893 -95.125 137.9375 C-96.09163574 138.39785645 -97.05827148 138.85821289 -98.05419922 139.33251953 C-110.20724865 145.08803102 -122.4578132 150.63074611 -134.71754456 156.15432739 C-138.83421802 158.01194985 -142.93945786 159.8920624 -147.03479004 161.79626465 C-149.60003556 162.98748248 -152.17011476 164.16803522 -154.74090576 165.347229 C-156.48477753 166.15164792 -158.22229437 166.96980067 -159.95947266 167.78857422 C-173.58123883 174.00891831 -186.57929179 176.63788227 -201.48828125 176.63671875 C-202.92531325 176.64709713 -204.3623404 176.65816733 -205.79936218 176.6698761 C-208.79191712 176.68911684 -211.78400686 176.69280027 -214.77661133 176.6862793 C-217.78163414 176.68151314 -220.78463165 176.7020546 -223.78930664 176.74780273 C-244.05704158 177.05243197 -261.52014391 175.18774801 -281 169 C-292.39811825 165.49568291 -303.09184798 162.53196031 -315.08984375 162.68359375 C-316.63038925 162.69398682 -316.63038925 162.69398682 -318.20205688 162.70458984 C-330.16228265 162.88641703 -341.99783776 164.171199 -353.875 165.5 C-357.17688691 165.86106058 -360.47910429 166.21835281 -363.78201294 166.56994629 C-365.80844748 166.78645452 -367.83429332 167.0085846 -369.85934448 167.2376709 C-375.93214947 167.89642573 -381.89276697 168.13058723 -388 168 C-387.95359375 168.81984375 -387.9071875 169.6396875 -387.859375 170.484375 C-387.82328125 171.56203125 -387.7871875 172.6396875 -387.75 173.75 C-387.70359375 174.81734375 -387.6571875 175.8846875 -387.609375 176.984375 C-388 180 -388 180 -392 184 C-411.8 184 -431.6 184 -452 184 C-452 144.4 -452 104.8 -452 64 C-432.2 64 -412.4 64 -392 64 C-388 68 -388 68 -387.609375 70.796875 C-387.65578125 71.77140625 -387.7021875 72.7459375 -387.75 73.75 C-387.78609375 74.73484375 -387.8221875 75.7196875 -387.859375 76.734375 C-387.90578125 77.48203125 -387.9521875 78.2296875 -388 79 C-379.40994439 78.96164018 -370.82039806 78.9018488 -362.23069763 78.81609726 C-358.24037238 78.77690505 -354.25025848 78.74458049 -350.25976562 78.72900391 C-346.39503299 78.71364793 -342.5308826 78.67887837 -338.66641235 78.63169098 C-337.20599484 78.61706921 -335.74549412 78.60897029 -334.28500366 78.60811615 C-308.40814706 78.57781648 -289.78453702 67.3895065 -268.5546875 53.64941406 C-265.03611966 51.37767818 -261.50397179 49.13324521 -257.9375 46.9375 C-256.37322266 45.96103516 -256.37322266 45.96103516 -254.77734375 44.96484375 C-244.56690632 39.32743761 -233.6221978 36.81242145 -222.25 34.8125 C-220.69476648 34.53071466 -219.13967697 34.24813358 -217.5847168 33.96484375 C-214.08374442 33.33004247 -210.58118767 32.70487656 -207.07763672 32.08447266 C-201.41416601 31.07888231 -195.75708363 30.03990805 -190.10006714 28.998703 C-184.95474999 28.05458583 -179.80707843 27.12378674 -174.65881348 26.19589233 C-172.10703898 25.73421381 -169.5559995 25.26845297 -167.0057373 24.79849243 C-163.38757329 24.13369931 -159.76663216 23.48669979 -156.14453125 22.84375 C-155.06667862 22.64206711 -153.98882599 22.44038422 -152.87831116 22.23258972 C-137.8240842 19.61211298 -137.8240842 19.61211298 -131.82087708 23.36071777 C-127.91699152 26.47327915 -125.38448217 29.43004025 -124.62890625 34.48046875 C-124.42886442 42.63511515 -126.40861248 47.78220768 -131.6796875 53.97265625 C-137.88555605 60.468132 -144.73330155 63.94274774 -152.9375 67.3359375 C-153.89462891 67.73777252 -154.85175781 68.13960754 -155.83789062 68.55361938 C-158.88949358 69.83332085 -161.94460851 71.10437425 -165 72.375 C-167.02238206 73.22076465 -169.0445199 74.0671135 -171.06640625 74.9140625 C-174.01120466 76.14737728 -176.95621547 77.38015558 -179.90234375 78.61029053 C-187.28812089 81.69467725 -194.65287946 84.82463053 -202 88 C-200.04215928 90.38115763 -198.0495227 92.69822835 -196 95 C-195.1646875 95.9384375 -194.329375 96.876875 -193.46875 97.84375 C-187.25069038 104.99494785 -187.25069038 104.99494785 -178.76538086 108.22436523 C-175.19576267 107.93474935 -172.07714648 106.83782484 -168.7421875 105.61328125 C-168.01191345 105.34985931 -167.2816394 105.08643738 -166.52923584 104.81503296 C-156.76584968 101.24620372 -147.12486767 97.35762081 -137.49658203 93.44189453 C-134.24561265 92.12322038 -130.98821478 90.82135768 -127.73046875 89.51953125 C-113.96647571 83.9643155 -101.07805567 78.2497677 -89.9375 68.1875 C-89.36370605 67.68323486 -88.78991211 67.17896973 -88.19873047 66.65942383 C-86.45411489 65.11877116 -84.72440419 63.56322174 -83 62 C-82.4539209 61.505 -81.9078418 61.01 -81.34521484 60.5 C-78.77540452 58.16253721 -76.21773049 55.81242674 -73.66796875 53.453125 C-70.84039444 50.85324701 -67.96060338 48.3244732 -65.05859375 45.80859375 C-62.5104335 43.5698875 -60.00589407 41.28589788 -57.5 39 C-53.71337002 35.54671847 -49.8952368 32.13900949 -46.02734375 28.77734375 C-43.66510827 26.70640513 -41.33204147 24.60487152 -39 22.5 C-32.63330682 16.76223548 -26.19335397 11.13056731 -19.625 5.625 C-18.83826904 4.96286499 -18.83826904 4.96286499 -18.03564453 4.28735352 C-12.15651968 -0.61639287 -7.56538283 -0.70398713 0 0 Z " fill="#FFC780" transform="translate(476,312)"/>
<path d="M0 0 C19.8 0 39.6 0 60 0 C64.50017134 4.50017134 64.50017134 4.50017134 64.50793457 8.70605469 C64.51921387 9.64815796 64.53049316 10.59026123 64.54211426 11.56091309 C64.53401733 12.58753052 64.52592041 13.61414795 64.51757812 14.671875 C64.5245874 15.75843384 64.53159668 16.84499268 64.53881836 17.96447754 C64.55643868 21.55991085 64.54476058 25.15455854 64.53125 28.75 C64.53394373 31.24576977 64.53782516 33.74153852 64.54284668 36.23730469 C64.54874721 41.46948275 64.54054146 46.70145608 64.52148438 51.93359375 C64.49971569 57.97997012 64.50676724 64.02580696 64.52879 70.07217026 C64.54913847 75.89212966 64.54697294 81.7118842 64.53526306 87.53186035 C64.53259155 90.00704015 64.53588036 92.48223369 64.54518127 94.95739746 C64.55532109 98.41467959 64.53988019 101.87092057 64.51757812 105.328125 C64.52567505 106.35474243 64.53377197 107.38135986 64.54211426 108.43908691 C64.52519531 109.85224182 64.52519531 109.85224182 64.50793457 111.29394531 C64.50642647 112.11098938 64.50491837 112.92803345 64.50336456 113.76983643 C64 116 64 116 60 120 C40.2 120 20.4 120 0 120 C0 80.4 0 40.8 0 0 Z " fill="#6C8099" transform="translate(24,376)"/>
<path d="M0 0 C5.28 0 10.56 0 16 0 C16 5.28 16 10.56 16 16 C17.2375 16.04125 18.475 16.0825 19.75 16.125 C27.45917578 17.00187307 35.25115857 20.58134211 40.5 26.375 C45.65040577 33.21182182 48 39.40424093 48 48 C42.72 48 37.44 48 32 48 C31.62875 46.618125 31.2575 45.23625 30.875 43.8125 C29.23967085 38.86757613 27.30130926 36.8675395 23 34 C18.03109156 32.34369719 12.89062913 32.73161924 7.6875 32.6875 C6.55892578 32.65849609 5.43035156 32.62949219 4.26757812 32.59960938 C-2.13839332 32.5505937 -6.18006021 32.60370334 -11 37 C-14.70136323 41.18838471 -15.59406206 44.39485244 -15.3203125 49.82421875 C-14.63754896 54.462015 -12.87329007 57.21190896 -9.4375 60.3125 C-5.73413857 62.87636561 -3.80611175 63.11986062 0.6796875 63.140625 C1.83726562 63.15996094 2.99484375 63.17929688 4.1875 63.19921875 C6.60661013 63.23253277 9.02597444 63.25125927 11.4453125 63.25390625 C21.9205921 63.47310263 31.74319512 65.9354644 39.5390625 73.33203125 C46.12311832 80.84912171 48.54908468 88.60845469 48.37890625 98.546875 C47.54274377 106.16715984 44.24859946 113.86745212 38.921875 119.46875 C32.08505106 124.91597558 24.66967206 127.71101093 16 128 C16 133.28 16 138.56 16 144 C10.72 144 5.44 144 0 144 C0 138.72 0 133.44 0 128 C-2.31 128 -4.62 128 -7 128 C-15.50011396 125.61940795 -22.74523784 120.46591186 -27.375 113 C-30.67283598 107.01371077 -32 102.95727242 -32 96 C-26.72 96 -21.44 96 -16 96 C-15.62875 97.381875 -15.2575 98.76375 -14.875 100.1875 C-13.24995958 105.12482376 -11.25510867 107.10290473 -7 110 C-2.81515196 112.09242402 2.65210901 111.22935851 7.25 111.25 C8.38308594 111.270625 9.51617187 111.29125 10.68359375 111.3125 C18.77677065 111.39306966 18.77677065 111.39306966 26 108 C30.35055624 103.29669595 31.35621669 99.52832313 31.28515625 93.28515625 C30.72881312 88.82679007 28.20582561 86.05966493 24.9375 83.1875 C21.31364824 80.96642957 18.27042593 80.86817338 14.1171875 80.82421875 C12.94929688 80.80037109 11.78140625 80.77652344 10.578125 80.75195312 C8.13298316 80.70939528 5.68762015 80.67792436 3.2421875 80.65820312 C-4.06456569 80.48594962 -9.63777817 79.67434024 -16 76 C-17.19689453 75.33097656 -17.19689453 75.33097656 -18.41796875 74.6484375 C-25.54113779 69.5222717 -29.65818505 62.39859998 -32 54 C-32.88055277 45.83952844 -32.30216839 39.0496591 -28 32 C-27.57589844 31.30132812 -27.15179688 30.60265625 -26.71484375 29.8828125 C-22.07091451 23.0268724 -15.18572829 17.77950615 -7 16 C-4.69 16 -2.38 16 0 16 C0 10.72 0 5.44 0 0 Z " fill="#6D8198" transform="translate(216,80)"/>
<path d="M0 0 C5.28 0 10.56 0 16 0 C16 5.28 16 10.56 16 16 C10.72 16 5.44 16 0 16 C0 10.72 0 5.44 0 0 Z " fill="#485666" transform="translate(48,448)"/>
<path d="M0 0 C5.28 0 10.56 0 16 0 C16 5.28 16 10.56 16 16 C10.72 16 5.44 16 0 16 C0 10.72 0 5.44 0 0 Z " fill="#FFCB52" transform="translate(352,224)"/>
<path d="M0 0 C5.28 0 10.56 0 16 0 C16 5.28 16 10.56 16 16 C10.72 16 5.44 16 0 16 C0 10.72 0 5.44 0 0 Z " fill="#FFCB52" transform="translate(376,192)"/>
<path d="M0 0 C5.28 0 10.56 0 16 0 C16 5.28 16 10.56 16 16 C10.72 16 5.44 16 0 16 C0 10.72 0 5.44 0 0 Z " fill="#FFCB52" transform="translate(408,160)"/>
<path d="M0 0 C5.28 0 10.56 0 16 0 C16 5.28 16 10.56 16 16 C10.72 16 5.44 16 0 16 C0 10.72 0 5.44 0 0 Z " fill="#FFCB52" transform="translate(360,144)"/>
<path d="M0 0 C5.28 0 10.56 0 16 0 C16 5.28 16 10.56 16 16 C10.72 16 5.44 16 0 16 C0 10.72 0 5.44 0 0 Z " fill="#FFCB52" transform="translate(400,120)"/>
<path d="M0 0 C5.28 0 10.56 0 16 0 C16 5.28 16 10.56 16 16 C10.72 16 5.44 16 0 16 C0 10.72 0 5.44 0 0 Z " fill="#FFCB52" transform="translate(368,88)"/>
<path d="M0 0 C5.28 0 10.56 0 16 0 C16 5.28 16 10.56 16 16 C10.72 16 5.44 16 0 16 C0 10.72 0 5.44 0 0 Z " fill="#FFCB52" transform="translate(344,56)"/>
</svg>
